<svg xmlns="http://www.w3.org/2000/svg" fill="#FFFFFF" focusable="false" role="img" version="1.1" viewBox="0 0 400 73.8">
  <path d="M384.9,10.1C376.2,3.6,364.1,0,352,0h-3.2c-12.1,0-24.2,3.6-32.9,10.1c-9.4,7-15.1,16.5-15.1,26.8s5.7,19.8,15.1,26.8 c8.7,6.5,20.8,10.1,32.9,10.1h3.2c12.1,0,24.2-3.6,32.9-10.1c9.4-7,15.1-16.5,15.1-26.8S394.3,17.1,384.9,10.1z M352,58.5h-3.2 c-16.8,0-30.2-10.2-30.2-21.6c0-11.5,13.4-21.6,30.2-21.6h3.2c16.8,0,30.2,10.2,30.2,21.6C382.2,48.4,368.8,58.5,352,58.5z M245.9,1.9h-43.4v70h43.4c27.1,0,45.6-15,45.6-35S273.2,1.9,245.9,1.9z M245.9,56.7h-26V17.1h26c18.3,0,27.1,8.5,27.1,19.8 C272.9,48.2,264.2,56.7,245.9,56.7z M130.5,2h-17.2v69.9h76.3V56.7h-59.1V2z M0,72h19.1l7.7-10.8h50.4L84.9,72h19.2L52,0.4L0,72z  M37.3,46.7L52,26.1l14.7,20.5H37.3V46.7z"></path>
</svg>
