<?xml version="1.0" encoding="UTF-8" standalone="no"?>
<!DOCTYPE svg PUBLIC "-//W3C//DTD SVG 1.1//EN" "http://www.w3.org/Graphics/SVG/1.1/DTD/svg11.dtd">
<svg width="100%" height="100%" viewBox="0 0 111 22" version="1.1" xmlns="http://www.w3.org/2000/svg" xmlns:xlink="http://www.w3.org/1999/xlink" xml:space="preserve" xmlns:serif="http://www.serif.com/" style="fill-rule:evenodd;clip-rule:evenodd;stroke-linejoin:round;stroke-miterlimit:1.41421;">
    <g transform="matrix(1,0,0,1,-251,-735)">
        <path d="M280.478,755.563L280.478,736.493L280.478,736.222L283.741,736.222L283.741,752.346L299.577,752.346L299.577,755.563L280.478,755.563Z" style="fill:rgb(55,53,53);fill-rule:nonzero;"/>
        <path d="M316.341,736.228C326.086,736.206 329.162,741.779 329.168,745.908C329.167,745.915 329.168,745.933 329.168,745.96C329.169,748.149 328.34,750.566 326.203,752.423C324.067,754.28 320.649,755.563 315.507,755.563L315.503,755.563L303.56,755.563L303.56,736.228L316.341,736.228ZM315.668,752.34C323.285,752.315 325.86,749.154 325.872,745.94C325.872,745.917 325.873,745.902 325.873,745.897C325.833,742.814 323.478,739.475 316.346,739.451L306.801,739.451L306.801,752.34L315.668,752.34Z" style="fill:rgb(55,53,53);fill-rule:nonzero;"/>
        <path d="M346.552,735.79C351.184,735.79 354.629,737.038 356.92,738.933C359.21,740.827 360.337,743.367 360.335,745.895C360.337,748.423 359.21,750.964 356.92,752.858C354.631,754.752 351.188,756.001 346.556,756L346.552,756C341.917,756.001 338.474,754.753 336.184,752.858C333.893,750.964 332.766,748.423 332.768,745.895C332.766,743.367 333.893,740.827 336.184,738.933C338.474,737.038 341.917,735.79 346.552,735.79ZM346.552,752.76C353.713,752.747 357.052,749.316 357.063,745.895C357.059,744.142 356.208,742.445 354.468,741.163C352.73,739.883 350.092,739.031 346.552,739.031C339.391,739.044 336.052,742.477 336.042,745.895C336.052,749.316 339.391,752.747 346.552,752.76Z" style="fill:rgb(55,53,53);fill-rule:nonzero;"/>
        <path d="M252.827,755.551L252.335,755.55L264.964,735.838L277.569,755.551L273.918,755.551L270.796,750.885L259.059,750.885L255.991,755.559L252.827,755.551ZM268.825,747.673L264.951,741.615L261.005,747.673L268.825,747.673Z" style="fill:rgb(55,53,53);fill-rule:nonzero;"/>
    </g>
</svg>
